# xmcd
#
# Track frame offsets: 
#        150
#        20118
#        45164
#        62475
#        82277
#        102065
#        124202
#        142857
#        174684
#        191581
#        205676
#        224230
#        236594
#
# Disc length: 3506 seconds
#
# Revision: 0
# Processed by: cddbd v1.5.2PL0 Copyright (c) Steve Scherf et al.
# Submitted via: ExactAudioCopy v1.0b4
#
DISCID=bb0db00d
DTITLE=Wee Wille Walker And The Anthony Paul Soul Oschestra - After A 
DTITLE=While
DYEAR=2017
DGENRE=Blues
TTITLE0=Second Chance
TTITLE1=After A While
TTITLE2=I Don't Want To Take A Chance
TTITLE3=Romance In The Dark
TTITLE4=Hate Take A Holiday
TTITLE5=Thanks For The Dance
TTITLE6=If Only
TTITLE7=Cannot Be Denied
TTITLE8=Look What You're Done To Me
TTITLE9=I Don't Want To Know
TTITLE10=The Willie Walk
TTITLE11=Lovey Dovey
TTITLE12=Your Good Thing (It's About To End)
EXTD=
EXTT0=
EXTT1=
EXTT2=
EXTT3=
EXTT4=
EXTT5=
EXTT6=
EXTT7=
EXTT8=
EXTT9=
EXTT10=
EXTT11=
EXTT12=
PLAYORDER=
